<svg width="117" height="28" viewBox="0 0 117 28" fill="none" xmlns="http://www.w3.org/2000/svg">
<g opacity="0.5" clip-path="url(#clip0_249_1891)">
<path d="M27.4467 26.1392H20.9904L19.0152 21.335H8.25497L6.45548 26.1392H0.105469L9.80678 1.87487H16.7569L27.4467 26.1392ZM13.3703 7.67292L9.84243 17.1007H17.2512L13.3703 7.67292ZM50.8997 1.87487H56.121V26.1392H50.1228V10.983L43.6315 18.5959H42.7146L36.2237 10.983V26.1389H30.2256V1.87487H35.4468L43.1727 10.8759L50.8997 1.87487ZM71.3188 1.87487C80.1029 1.87487 84.6179 7.38866 84.6179 14.0417C84.6179 21.0147 80.2439 26.1392 70.6481 26.1392H60.6991V1.87487H71.3188ZM66.6968 21.692H70.6122C76.645 21.692 78.4444 17.5641 78.4444 14.0057C78.4444 9.84275 76.2215 6.32151 70.5416 6.32151H66.6967V21.692H66.6968ZM96.5509 7.62816L88.988 0H116.521V27.7664L108.958 20.1391V7.62816H96.5509ZM96.5421 9.1567L88.7556 17.0086V28H99.6534L107.439 20.1481H96.5421V9.1567Z" fill="black"/>
</g>
<defs>
<clipPath id="clip0_249_1891">
<rect width="116.465" height="28" fill="white" transform="translate(0.0800781)"/>
</clipPath>
</defs>
</svg>
