<svg width="35" height="36" viewBox="0 0 35 36" fill="none" xmlns="http://www.w3.org/2000/svg">
<g clip-path="url(#clip0_2001_2282)">
<path d="M17.5107 35.2714C27.1816 35.2714 35.0214 27.4316 35.0214 17.7607C35.0214 8.0898 27.1816 0.25 17.5107 0.25C7.8398 0.25 0 8.0898 0 17.7607C0 27.4316 7.8398 35.2714 17.5107 35.2714Z" fill="#4640DE"/>
<path d="M17.6171 24.0466C15.8425 24.0466 14.3459 23.6618 13.1272 22.9135C11.9085 22.1652 11.0533 21.1389 10.5615 19.8561L13.5976 18.1884C14.3031 19.9202 15.6715 20.7754 17.724 20.7754C18.7075 20.7754 19.4345 20.6044 19.9048 20.2623C20.3752 19.9202 20.589 19.4926 20.589 18.9795C20.589 18.3808 20.3111 17.9104 19.7338 17.5897C19.1779 17.269 18.1516 16.9055 16.6977 16.5207C15.8853 16.2855 15.2225 16.0717 14.6666 15.8365C14.1107 15.6013 13.5548 15.302 12.9989 14.9385C12.443 14.5537 12.0154 14.0833 11.7375 13.506C11.4595 12.9288 11.3098 12.2446 11.3098 11.4749C11.3098 9.93547 11.8871 8.71678 13.0417 7.8188C14.1962 6.92081 15.586 6.45044 17.2109 6.45044C18.6648 6.45044 19.9476 6.79253 21.038 7.45533C22.1498 8.11812 23.005 9.05887 23.6251 10.2562L20.6532 11.8811C19.9262 10.4272 18.793 9.70029 17.2109 9.70029C16.4839 9.70029 15.9067 9.84995 15.4791 10.1707C15.0514 10.4914 14.859 10.8976 14.859 11.3894C14.859 11.9239 15.0942 12.3515 15.5646 12.6722C16.035 12.9929 16.9329 13.3564 18.2799 13.7412C18.8358 13.9123 19.242 14.0192 19.52 14.1261C19.7979 14.2116 20.1828 14.3613 20.6745 14.5323C21.1663 14.7247 21.5298 14.8958 21.8077 15.0454C22.0643 15.2165 22.385 15.4303 22.7271 15.7082C23.0692 15.9862 23.3257 16.2641 23.5182 16.5634C23.7106 16.8628 23.8602 17.2049 23.9885 17.6111C24.1168 18.0173 24.1809 18.4663 24.1809 18.9581C24.1809 20.5189 23.5823 21.7589 22.3636 22.6783C21.1663 23.5977 19.5841 24.0466 17.6599 24.0466H17.6171Z" fill="white"/>
<path d="M17.5109 30.4395C20.3118 30.4395 23.134 28.2159 24.9514 26.4199C25.379 25.9923 24.8658 25.3936 24.3313 25.6716C22.3429 26.7192 19.6276 27.9166 17.4895 27.9166C15.3515 27.9166 12.6361 26.7192 10.6478 25.6716C10.1132 25.3936 9.62149 25.9923 10.0277 26.4199C11.8451 28.2373 14.6673 30.4395 17.4682 30.4395H17.5109Z" fill="#26A4FF"/>
</g>
<defs>
<clipPath id="clip0_2001_2282">
<rect width="35" height="35" fill="white" transform="translate(0 0.25)"/>
</clipPath>
</defs>
</svg>
