<svg width="83" height="32" viewBox="0 0 83 32" fill="none" xmlns="http://www.w3.org/2000/svg">
<g opacity="0.5" clip-path="url(#clip0_249_1882)">
<path d="M0.803711 0.446533H6.74396V6.41642H0.803711V0.446533Z" fill="black"/>
<path d="M6.59647 31.5514V10.03H0.952148V31.5302H6.59655L6.59647 31.5514ZM43.9717 31.7639V26.495C43.1472 26.495 42.4495 26.4526 41.9422 26.3676C41.3503 26.2827 40.9064 26.0701 40.6104 25.7727C40.3144 25.4753 40.1241 25.0503 40.0184 24.4767C39.9339 23.9456 39.8917 23.2446 39.8917 22.3948V14.8951H43.9717V10.03H39.8916V1.65935H34.2472V22.4585C34.2472 24.2218 34.3952 25.709 34.6911 26.8987C34.9871 28.0672 35.4945 29.0233 36.1921 29.7456C36.8896 30.4679 37.8199 30.9778 38.9403 31.2965C40.0818 31.6152 41.5193 31.7639 43.2317 31.7639H43.9717ZM76.2732 31.5514V0.00219727H70.6289V31.5514H76.2732ZM28.8145 12.1545C27.2502 10.4549 25.0516 9.60507 22.2611 9.60507C20.9082 9.60507 19.6609 9.88128 18.5617 10.4336C17.4413 10.986 16.5111 11.7508 15.7501 12.728L15.4541 13.1317V10.03H9.8944V31.5302H15.4964V20.079V20.4827C15.5598 18.4644 16.0461 16.9772 16.9762 16.0211C17.9698 15.0014 19.1747 14.4915 20.5489 14.4915C22.1766 14.4915 23.4238 15.0014 24.2483 15.9787C25.0516 16.956 25.4744 18.3369 25.4744 20.1002V31.5302H31.161V19.3354C31.1821 16.2761 30.3789 13.8541 28.8145 12.1545ZM67.7115 20.7588C67.7115 19.2079 67.4367 17.7633 66.9082 16.4036C66.3586 15.065 65.5975 13.8753 64.6463 12.8555C63.6738 11.8358 62.5111 11.0498 61.1582 10.4762C59.8052 9.90248 58.3043 9.62627 56.6766 9.62627C55.1334 9.62627 53.6747 9.92375 52.3217 10.4974C50.9688 11.0922 49.785 11.8783 48.7914 12.8768C47.7978 13.8753 46.9945 15.0651 46.4238 16.4249C45.8318 17.7845 45.557 19.2504 45.557 20.8013C45.557 22.3523 45.8319 23.8182 46.3815 25.1778C46.9311 26.5375 47.7133 27.7273 48.6857 28.7259C49.6582 29.7243 50.8631 30.5316 52.2583 31.1053C53.6536 31.7001 55.1968 31.9976 56.8457 31.9976C61.6233 31.9976 64.5828 29.8093 66.3586 27.7698L62.2997 24.6679C61.4541 25.6877 59.4248 27.0687 56.888 27.0687C55.3025 27.0687 53.9918 26.7075 52.9982 25.9639C52.0046 25.2416 51.3282 24.2218 50.9687 22.9684L50.9054 22.7771H67.7115V20.7588ZM50.9476 18.783C50.9476 17.2108 52.7445 14.4702 56.6131 14.449C60.4817 14.449 62.2997 17.1896 62.2997 18.7618L50.9476 18.783ZM82.6998 28.832C82.5941 28.5771 82.4461 28.3646 82.2558 28.1735C82.0656 27.9822 81.8542 27.8335 81.6005 27.7273C81.3469 27.6211 81.072 27.5574 80.7972 27.5574C80.5013 27.5574 80.2476 27.6211 79.9939 27.7273C79.7402 27.8335 79.5288 27.9822 79.3386 28.1735C79.1483 28.3646 79.0003 28.5771 78.8946 28.832C78.7889 29.0869 78.7255 29.3632 78.7255 29.6394C78.7255 29.9368 78.7889 30.1917 78.8946 30.4467C79.0003 30.7015 79.1483 30.9141 79.3386 31.1053C79.5288 31.2965 79.7402 31.4452 79.9939 31.5514C80.2475 31.6577 80.5224 31.7213 80.7972 31.7213C81.0932 31.7213 81.3469 31.6577 81.6005 31.5514C81.8542 31.4452 82.0656 31.2965 82.2559 31.1053C82.4461 30.9141 82.5941 30.7016 82.6999 30.4467C82.8056 30.1918 82.8689 29.9156 82.8689 29.6393C82.8689 29.363 82.8055 29.0869 82.6999 28.832H82.6998ZM82.3616 30.3192C82.2771 30.5316 82.1502 30.7228 82.0021 30.8716C81.8542 31.0203 81.6639 31.1477 81.4526 31.2328C81.2412 31.3177 81.0298 31.3602 80.7761 31.3602C80.5435 31.3602 80.311 31.3177 80.0996 31.2328C79.8883 31.1478 79.6979 31.0203 79.55 30.8715C79.402 30.7228 79.2751 30.5316 79.1905 30.3192C79.106 30.1067 79.0637 29.8943 79.0637 29.6394C79.0637 29.4056 79.106 29.172 79.1906 28.9595C79.2751 28.7471 79.402 28.5558 79.55 28.4071C79.6979 28.2584 79.8882 28.1309 80.0996 28.0459C80.311 27.9609 80.5224 27.9185 80.7761 27.9185C81.0086 27.9185 81.2412 27.961 81.4526 28.046C81.6639 28.1309 81.8542 28.2584 82.0021 28.4072C82.1502 28.5558 82.2771 28.747 82.3616 28.9595C82.4461 29.1721 82.4884 29.3844 82.4884 29.6394C82.4884 29.8943 82.4461 30.1067 82.3616 30.3192ZM81.1777 29.8305C81.3468 29.8093 81.4736 29.7456 81.5793 29.6394C81.685 29.5331 81.7485 29.3844 81.7485 29.172C81.7485 28.9382 81.685 28.7683 81.5371 28.6408C81.4103 28.5133 81.1777 28.4496 80.9029 28.4496H79.9728V30.8503H80.4167V29.873H80.7337L81.3257 30.8503H81.7907L81.1777 29.8305ZM80.9451 29.4694H80.4166V28.7895H80.9451C81.0085 28.7895 81.0719 28.8107 81.1354 28.832C81.1988 28.8533 81.2411 28.8958 81.2622 28.9382C81.3045 28.9807 81.3045 29.0445 81.3045 29.1294C81.3045 29.2144 81.2833 29.2782 81.2622 29.3207C81.2199 29.3632 81.1776 29.4056 81.1354 29.4269C81.0719 29.4481 81.0085 29.4694 80.9451 29.4694H80.9451Z" fill="black"/>
</g>
<defs>
<clipPath id="clip0_249_1882">
<rect width="82.0647" height="32" fill="white" transform="translate(0.803711)"/>
</clipPath>
</defs>
</svg>
