<svg width="479" height="40" viewBox="0 0 479 40" fill="none" xmlns="http://www.w3.org/2000/svg">
<path d="M10.214 16.8907C13.9643 16.8907 17.8931 16.722 21.6434 16.5533C23.2507 16.5533 24.6794 16.3846 26.2866 16.3846C33.0729 16.0473 39.8591 15.7099 46.6453 15.3726C54.8603 15.0352 62.8966 14.5292 71.1115 14.1918C82.7195 13.5171 94.3276 13.011 105.936 12.3363C108.614 12.1676 111.293 12.1676 113.972 11.9989C120.758 11.6616 127.544 11.3242 134.331 11.1555C141.117 10.8181 147.903 10.4808 154.689 10.3121C157.368 10.1434 160.047 9.97474 162.726 9.97474C173.441 9.63737 184.334 9.3 195.05 8.96264C201.657 8.79396 208.265 8.62528 215.051 8.28792C217.73 8.28792 220.23 8.11923 222.909 8.11923C233.267 7.95055 243.803 7.78187 254.161 7.61319C264.519 7.44451 274.699 7.27582 285.056 7.10714C287.735 7.10714 290.414 7.10714 293.271 7.10714C300.058 7.10714 306.665 7.10714 313.452 7.10714C323.988 7.10714 334.346 7.10714 344.883 6.93846C348.276 6.93846 351.669 6.93846 355.062 6.93846C362.205 6.93846 369.349 6.93846 376.492 6.93846C377.028 6.93846 377.742 6.93846 378.278 6.93846C362.205 7.10714 345.954 7.27583 329.881 7.61319C323.095 7.78187 316.487 7.78187 309.701 7.95055C306.844 7.95055 303.808 7.95055 300.951 8.11923C291.128 8.28791 281.485 8.62528 271.663 8.79396C260.412 9.13132 249.161 9.3 237.91 9.63737C235.946 9.63737 234.16 9.80605 232.195 9.80605C226.123 10.1434 220.23 10.3121 214.158 10.6495C202.014 11.1555 189.871 11.6616 177.727 12.1676C175.941 12.1676 174.155 12.3363 172.369 12.505C166.476 12.8423 160.404 13.3484 154.511 13.6857C143.796 14.3605 133.259 15.0352 122.544 15.7099C119.687 15.8786 116.651 16.216 113.793 16.3846C107.007 16.8907 100.221 17.3967 93.4346 18.0715C84.8625 18.7462 76.1119 19.4209 67.5398 20.0957C55.5746 21.1077 43.4308 22.1198 31.4656 23.1319C28.6082 23.3006 25.7509 23.638 22.7149 23.8067C17.536 24.3127 12.357 24.8187 7.17802 25.3248C6.64226 25.3248 6.10651 25.6621 6.10651 26.3369C6.10651 26.8429 6.64226 27.349 7.17802 27.349C9.14245 27.349 10.9283 27.5176 12.8927 27.5176C12.7142 28.0237 12.5356 28.5298 12.5356 29.0358C12.5356 30.8913 14.1428 32.5781 16.2859 32.5781C31.1084 31.7347 45.7524 30.7226 60.575 30.0479C73.4331 29.5418 86.2912 28.8671 99.1494 28.3611C113.258 27.6863 127.544 27.0116 141.653 26.5056C146.117 26.3369 150.582 26.1682 155.047 25.8308C156.297 25.8308 157.547 25.6621 158.975 25.6621C181.834 25.1561 204.693 24.4814 227.552 23.9753C239.696 23.638 252.018 23.3006 264.162 23.1319C268.627 22.9632 272.913 22.9632 277.377 22.7946C300.772 22.4572 324.167 22.1198 347.561 21.7825C357.562 21.6138 367.563 21.4451 377.564 21.2764C386.136 21.1077 394.708 21.1077 403.28 20.7704C410.423 20.6017 417.388 20.2643 424.531 20.0957C428.103 19.927 431.675 19.927 435.068 19.7583C443.104 19.2522 451.141 18.7462 459.177 18.2401C458.641 18.9149 458.641 19.927 458.82 20.6017C458.998 21.4451 459.534 22.1198 460.427 22.4572C461.141 22.7946 462.213 23.1319 462.927 22.7946C464.713 22.1198 466.499 21.4451 468.106 20.7704C468.106 20.7704 468.106 20.7704 467.928 20.7704C468.106 20.7704 468.106 20.6017 468.285 20.6017C468.463 20.6017 468.642 20.433 468.642 20.433H468.463C469.356 20.0956 470.249 19.7583 471.321 19.2522C472.214 18.9149 473.285 18.4088 474.178 18.0715C475.25 17.5654 476.143 17.0594 477.214 16.5533C478.286 16.0473 479 14.6978 479 13.5171C479 12.8423 478.821 12.3363 478.464 11.6616C478.107 10.9868 477.214 10.1434 476.321 9.97474C475.428 9.80606 474.535 9.63737 473.642 9.63737C473.464 9.63737 473.285 9.63737 473.107 9.63737C472.571 9.63737 471.857 9.63737 471.321 9.80605C469.892 9.97473 468.642 10.1434 467.213 10.1434C466.142 10.1434 465.07 10.3121 463.82 10.3121C460.784 10.4808 457.927 10.6495 454.891 10.9868C454.177 10.9868 453.284 11.1555 452.569 11.1555C452.927 10.8181 453.105 10.4808 453.105 10.1434C453.284 9.80605 453.284 9.46869 453.284 9.13133C453.284 8.96265 453.284 8.62528 453.462 8.4566C453.462 8.11924 453.462 7.78187 453.284 7.61319C453.284 7.61319 453.462 7.61319 453.462 7.44451C453.998 7.10715 454.534 6.76978 454.891 6.09505C455.248 5.589 455.427 4.91428 455.427 4.23955C455.427 3.56482 455.248 3.05878 454.891 2.38405C454.712 2.21537 454.534 1.87801 454.355 1.70932C453.819 1.20328 453.284 1.0346 452.748 0.865914C451.676 0.52855 450.426 0.359863 449.176 0.359863C448.105 0.359863 447.212 0.359863 446.14 0.359863C444.712 0.359863 443.283 0.359863 441.854 0.359863C439.89 0.359863 437.747 0.359863 435.782 0.359863C430.425 0.359863 425.067 0.359863 419.71 0.359863C414.709 0.359863 409.53 0.359863 404.53 0.359863C399.887 0.359863 395.422 0.359863 390.779 0.359863C372.385 0.359863 354.169 0.528553 335.775 0.697235C322.024 0.865917 308.273 1.03459 294.522 1.03459C288.45 1.03459 282.199 1.20327 276.127 1.37195C262.376 1.70932 248.625 1.878 234.874 2.21536C230.945 2.21536 227.016 2.38405 223.087 2.38405C220.766 2.38405 218.623 2.55273 216.301 2.55273C202.729 3.05878 189.156 3.56483 175.584 4.07087C171.476 4.23955 167.369 4.40823 163.083 4.57691C160.761 4.57691 158.44 4.7456 156.118 4.91428C142.546 5.58901 129.152 6.26373 115.579 6.93846C108.614 7.27582 101.65 7.61318 94.6847 8.11923C82.7195 8.79396 70.7543 9.46869 58.9677 10.3121C48.6098 10.9868 38.2518 11.4929 27.8939 11.9989C26.2866 12.1676 24.6794 12.1676 22.8935 12.3363C20.2147 12.505 17.536 12.505 14.8572 12.6736C12.5356 12.8423 10.214 12.8423 7.71377 12.8423C7.53519 12.3363 6.82085 11.8302 6.28509 11.8302C4.67782 11.9989 3.24915 12.1676 1.64188 12.3363C0.927539 12.3363 0.213198 12.6736 0.0346125 13.5171C-0.143973 14.3605 0.391782 15.2039 1.10612 15.3726C1.82046 15.5412 2.35622 15.7099 3.07056 15.8786C3.7849 16.0473 4.32066 16.0473 5.035 16.0473C6.82085 16.722 8.42811 16.722 10.214 16.8907ZM428.103 11.3242C430.246 11.3242 432.568 11.3242 434.711 11.3242C434.889 11.8302 435.247 12.1676 435.604 12.505C434.711 12.505 433.818 12.6736 433.104 12.6736C431.496 12.6736 429.889 12.8423 428.282 12.8423C421.138 13.011 414.174 13.3484 407.03 13.5171C403.816 13.6857 400.601 13.8544 397.387 13.8544C392.386 13.8544 387.207 14.0231 382.207 14.0231C370.599 14.1918 359.169 14.3605 347.561 14.5291C325.06 14.8665 302.736 15.2039 280.235 15.5412C264.162 15.7099 248.089 16.216 232.017 16.722C207.908 17.3967 183.62 17.9028 159.511 18.5775C154.689 18.7462 149.868 18.9149 145.046 19.2522C131.295 19.927 117.544 20.433 103.793 21.1077C90.3987 21.7825 76.8262 22.2885 63.4323 22.9632C62.1822 22.9632 60.9321 23.1319 59.682 23.1319C63.2538 22.7946 67.004 22.6259 70.5757 22.2885C83.2553 21.4451 95.9348 20.433 108.614 19.5896C113.079 19.2522 117.544 18.9149 121.83 18.5775C124.151 18.4088 126.473 18.2401 128.616 18.2401C141.831 17.5654 155.047 16.722 168.262 16.0473C170.762 15.8786 173.441 15.7099 175.941 15.5412C179.691 15.3726 183.442 15.2039 187.013 15.2039C200.586 14.6978 214.158 14.1918 227.731 13.6857C230.767 13.5171 233.803 13.5171 236.66 13.3484C237.374 13.3484 238.267 13.3484 238.982 13.3484C241.125 13.3484 243.268 13.3484 245.232 13.1797C258.805 12.8423 272.556 12.6736 286.128 12.3363C292.378 12.1676 298.629 11.9989 304.879 11.9989C325.06 11.8302 345.418 11.6615 365.598 11.4929C386.85 11.4929 407.566 11.4929 428.103 11.3242Z" fill="#26A4FF"/>
<path d="M37.1789 39.9999C37.7707 39.9999 38.2504 39.5468 38.2504 38.9879C38.2504 38.429 37.7707 37.9758 37.1789 37.9758C36.5872 37.9758 36.1074 38.429 36.1074 38.9879C36.1074 39.5468 36.5872 39.9999 37.1789 39.9999Z" fill="#26A4FF"/>
</svg>
